<svg version="1.1" xmlns="http://www.w3.org/2000/svg" xmlns:xlink="http://www.w3.org/1999/xlink" width="14.33333" height="20.33333" viewBox="0,0,14.33333,20.33333"><g transform="translate(-232.83333,-169.83333)"><g data-paper-data="{&quot;isPaintingLayer&quot;:true}" fill-rule="nonzero" stroke="none" stroke-linejoin="miter" stroke-miterlimit="10" stroke-dasharray="" stroke-dashoffset="0" style="mix-blend-mode: normal"><path d="M241.3203,178.7656c1.20833,0.15625 2.13021,0.57292 2.76563,1.25c0.63542,0.66667 0.95313,1.5 0.95313,2.5c0,0.76042 -0.19271,1.45313 -0.57812,2.07813c-0.38542,0.61458 -0.96875,1.10938 -1.75,1.48438c-0.77083,0.36458 -1.71875,0.54688 -2.84375,0.54688c-0.92708,0 -1.82292,-0.13021 -2.6875,-0.39062c-0.86458,-0.27083 -1.60417,-0.64583 -2.21875,-1.125l1.04688,-1.875c0.46875,0.39583 1.04167,0.70833 1.71875,0.9375c0.6875,0.22917 1.39063,0.34375 2.10938,0.34375c0.85417,0 1.52604,-0.17708 2.01563,-0.53125c0.5,-0.35417 0.75,-0.83854 0.75,-1.45312c0,-0.60417 -0.23437,-1.07812 -0.70312,-1.42187c-0.46875,-0.34375 -1.18229,-0.51562 -2.14062,-0.51562h-1.1875v-1.65625l2.95313,-3.53125h-5.92187v-2.03125h8.89063v1.625z" fill="#000000" stroke-width="1" stroke-linecap="square"/><path d="M232.83334,190.16667v-20.33333h14.33333v20.33333z" fill="none" stroke-width="0" stroke-linecap="butt"/></g></g></svg>