<svg version="1.1" xmlns="http://www.w3.org/2000/svg" xmlns:xlink="http://www.w3.org/1999/xlink" width="532.03153" height="578.09009" viewBox="0,0,532.03153,578.09009"><defs><radialGradient cx="136.5015" cy="252.25601" r="288.79504" gradientUnits="userSpaceOnUse" id="color-1"><stop offset="0" stop-color="#e68c00" stop-opacity="0"/><stop offset="1" stop-color="#e68c00"/></radialGradient></defs><g transform="translate(129.51426,36.78904)"><g data-paper-data="{&quot;isPaintingLayer&quot;:true}" fill-rule="nonzero" stroke-width="0.5" stroke-linejoin="miter" stroke-miterlimit="10" stroke-dasharray="" stroke-dashoffset="0" style="mix-blend-mode: normal"><path d="M39,211v6" fill="none" stroke="#000000" stroke-linecap="round"/><path d="M-129.26426,541.05105v-577.59009h531.53153v577.59009z" fill="url(#color-1)" stroke="#000000" stroke-linecap="butt"/><path d="M218.50644,80.01678c0.60634,2.42536 -1.81902,3.0317 -1.81902,3.0317l-1.15529,0.28882c-17.28631,4.31409 -35.31942,5.73131 -52.98376,7.76951c-28.59169,3.29904 -57.29349,7.03132 -86.10692,7.03132c0,0 -2.5,0 -2.5,-2.5c0,-2.5 2.5,-2.5 2.5,-2.5c28.62053,0 57.13344,-3.7214 85.5338,-6.99837c17.44231,-2.01257 35.27799,-3.37892 52.3442,-7.65318l1.15529,-0.28882c0,0 2.42536,-0.60634 3.0317,1.81902z" fill="#110b06" stroke="none" stroke-linecap="butt"/><path d="M235.0976,35.57808c0,2.5 -2.5,2.5 -2.5,2.5l-2.70776,-0.01749c-7.58788,1.87608 -15.21842,3.98072 -23.05439,4.51609c-0.95351,0.06515 -1.90885,0.12196 -2.86579,0.17123c-10.69902,3.23103 -20.73331,8.64499 -31.65412,11.1419c-9.72256,2.20967 -19.51004,4.23368 -29.18738,6.63253c-10.56677,2.61933 -21.06771,7.31107 -31.80544,9.06311c-7.10507,1.15931 -14.8976,-0.13379 -21.85806,-1.52589c0,0 -2.45145,-0.49029 -1.96116,-2.94174c0.49029,-2.45145 2.94174,-1.96116 2.94174,-1.96116c6.4027,1.28054 13.65046,2.57034 20.18398,1.47712c3.17364,-0.53103 6.18124,-1.7912 9.27519,-2.67519c6.41016,-1.83147 12.8201,-3.66371 19.23048,-5.49442c10.52373,-3.00542 21.39989,-5.02443 32.07255,-7.45003c6.06165,-1.36866 11.85224,-3.67454 17.63679,-6.00033c-9.14637,-0.07782 -18.33169,-0.46296 -27.36755,-0.49262c-9.85008,-1.46442 -19.7594,-3.45325 -29.66562,-4.45003c-7.44608,-0.74923 -15.10597,0.65605 -22.56436,-0.00347c-6.24358,-0.55211 -13.83926,-1.85226 -19.833,-3.66496c-3.11877,-0.94321 -5.78676,-3.18984 -8.97041,-3.88321c-1.3035,-0.28389 -2.66789,0.03404 -4.00184,0.05106c0,0 -2.5,0 -2.5,-2.5c0,-2.5 2.5,-2.5 2.5,-2.5c1.66906,0.01702 3.37543,-0.30033 5.00717,0.05106c1.8308,0.39425 7.42749,3.39485 9.41249,3.99518c5.69426,1.72212 12.91033,2.94903 18.84116,3.47167c7.43066,0.65481 15.05527,-0.73233 22.48068,-0.00347c9.90629,0.97237 19.82747,2.95985 29.67056,4.4504c13.63694,0.00794 27.60892,0.90478 41.26644,0.2485c4.6097,-1.35126 9.49655,-2.14513 14.18514,-3.18887l3.2805,-0.01545c0,0 0.64635,0 1.28175,0.32865c2.48297,-0.59939 4.95768,-1.22807 7.43202,-1.81265l3.29824,-0.01749c0,0 2.5,0 2.5,2.5z" fill="#110b06" stroke="none" stroke-linecap="butt"/><path d="M224.58709,1.04354c0,2.5 -2.5,2.5 -2.5,2.5h-1.5015c-16.06355,0 -31.84794,0.26287 -47.8742,1.49545c-29.08982,1.81857 -58.11855,1.50755 -87.26094,1.50755c0,0 -2.5,0 -2.5,-2.5c0,-2.5 2.5,-2.5 2.5,-2.5c29.02607,0 57.93974,0.31493 86.91324,-1.49545c16.14081,-1.24181 32.04395,-1.50755 48.2219,-1.50755h1.5015c0,0 2.5,0 2.5,2.5z" fill="#110b06" stroke="none" stroke-linecap="butt"/><path d="M239.6021,-24.48198c0,2.5 -2.5,2.5 -2.5,2.5h-1.5015c-6.61863,0 -13.46579,-0.42817 -20.05576,0.1043c-11.50287,0.92944 -23.07775,3.42688 -34.55007,4.85289c-11.58605,1.44014 -23.22819,3.14764 -34.86575,4.09608c-17.67336,1.44035 -35.45609,1.45725 -53.17106,1.45725c0,0 -2.5,0 -2.5,-2.5c0,-2.5 2.5,-2.5 2.5,-2.5c17.57947,0 35.22666,-0.01139 52.76492,-1.44072c11.56708,-0.9427 23.13918,-2.64299 34.65515,-4.07442c11.54434,-1.43496 23.18811,-3.93948 34.76413,-4.87483c6.72587,-0.54345 13.70373,-0.12054 20.45845,-0.12054h1.5015c0,0 2.5,0 2.5,2.5z" fill="#110b06" stroke="none" stroke-linecap="butt"/><path d="M232.09459,-31.98949c0,2.5 -2.5,2.5 -2.5,2.5c-6.50651,0 -14.51451,0 -21.02102,0c-2.77796,0 -8.89563,-0.82584 -11.57543,0.10443c-1.59238,0.55278 -2.60519,2.2968 -4.21663,2.7913c-1.66665,0.51144 -3.48572,0.08809 -5.22896,0.10727c-4.83829,0.05324 -9.68093,0 -14.51952,0c-27.19219,0 -54.38438,0 -81.57658,0c0,0 -2.5,0 -2.5,-2.5c0,-2.5 2.5,-2.5 2.5,-2.5c27.19219,0 54.38438,0 81.57658,0c4.83811,0 9.68182,-0.06253 14.51952,0c1.26042,0.01629 2.58514,0.50867 3.78004,0.10727c1.56197,-0.52471 2.53517,-2.25148 4.10388,-2.7557c1.29696,-0.41688 6.61319,-0.35439 8.6326,-0.35457c8.00801,-0.00074 16.01602,0 24.02402,0h1.5015c0,0 2.5,0 2.5,2.5z" fill="#110b06" stroke="none" stroke-linecap="butt"/></g></g></svg>