<svg version="1.1" xmlns="http://www.w3.org/2000/svg" xmlns:xlink="http://www.w3.org/1999/xlink" width="14.33333" height="20.33333" viewBox="0,0,14.33333,20.33333"><g transform="translate(-232.83333,-169.83333)"><g data-paper-data="{&quot;isPaintingLayer&quot;:true}" fill-rule="nonzero" stroke="none" stroke-linejoin="miter" stroke-miterlimit="10" stroke-dasharray="" stroke-dashoffset="0" style="mix-blend-mode: normal"><path d="M239.625,178.43748c1.84375,0 3.20313,0.35938 4.07813,1.07813c0.88542,0.70833 1.32813,1.67708 1.32813,2.90625c0,0.79167 -0.19271,1.50521 -0.57812,2.14063c-0.38542,0.625 -0.96354,1.125 -1.73437,1.5c-0.77083,0.375 -1.71875,0.5625 -2.84375,0.5625c-0.9375,0 -1.84375,-0.13021 -2.71875,-0.39062c-0.86458,-0.27083 -1.59375,-0.64583 -2.1875,-1.125l1.01563,-1.875c0.48958,0.39583 1.07292,0.70833 1.75,0.9375c0.67708,0.22917 1.375,0.34375 2.09375,0.34375c0.86458,0 1.54167,-0.17708 2.03125,-0.53125c0.48958,-0.35417 0.73438,-0.84375 0.73438,-1.46875c0,-0.66667 -0.26562,-1.17187 -0.79687,-1.51562c-0.53125,-0.34375 -1.4375,-0.51562 -2.71875,-0.51562h-3.14062l0.67188,-7.10937h7.65625v2.03125h-5.60937l-0.28125,3.03125z" fill="#000000" stroke-width="1" stroke-linecap="square"/><path d="M232.83334,190.16667v-20.33333h14.33333v20.33333z" fill="none" stroke-width="0" stroke-linecap="butt"/></g></g></svg>