<svg version="1.1" xmlns="http://www.w3.org/2000/svg" xmlns:xlink="http://www.w3.org/1999/xlink" width="14.33333" height="20.33333" viewBox="0,0,14.33333,20.33333"><g transform="translate(-232.83333,-169.83333)"><g data-paper-data="{&quot;isPaintingLayer&quot;:true}" fill-rule="nonzero" stroke="none" stroke-linejoin="miter" stroke-miterlimit="10" stroke-dasharray="" stroke-dashoffset="0" style="mix-blend-mode: normal"><path d="M240.71092,178.46873c0.86458,0 1.63542,0.16667 2.3125,0.5c0.6875,0.32292 1.22396,0.79167 1.60938,1.40625c0.38542,0.60417 0.57813,1.30729 0.57813,2.10938c0,0.84375 -0.21354,1.58854 -0.64062,2.23438c-0.41667,0.63542 -0.98958,1.13021 -1.71875,1.48438c-0.71875,0.34375 -1.52604,0.51563 -2.42187,0.51563c-1.79167,0 -3.18229,-0.55729 -4.17187,-1.67187c-0.97917,-1.125 -1.46875,-2.73437 -1.46875,-4.82812c0,-1.45833 0.26563,-2.70833 0.79688,-3.75c0.53125,-1.04167 1.27604,-1.83333 2.23438,-2.375c0.96875,-0.54167 2.08854,-0.8125 3.35938,-0.8125c0.67708,0 1.30729,0.07292 1.89063,0.21875c0.59375,0.14583 1.10938,0.35417 1.54688,0.625l-0.90625,1.82813c-0.64583,-0.42708 -1.46875,-0.64062 -2.46875,-0.64062c-1.26042,0 -2.24479,0.38542 -2.95312,1.15625c-0.70833,0.77083 -1.0625,1.88542 -1.0625,3.34375v0.01563c0.38542,-0.44792 0.875,-0.78646 1.46875,-1.01562c0.60417,-0.22917 1.27604,-0.34375 2.01563,-0.34375zM240.30467,184.81248c0.76042,0 1.375,-0.19792 1.84375,-0.59375c0.47917,-0.40625 0.71875,-0.94792 0.71875,-1.625c0,-0.6875 -0.23958,-1.22917 -0.71875,-1.625c-0.46875,-0.39583 -1.10417,-0.59375 -1.90625,-0.59375c-0.78125,0 -1.41667,0.21354 -1.90625,0.64063c-0.48958,0.41667 -0.73437,0.94792 -0.73437,1.59375c0,0.63542 0.23958,1.16146 0.71875,1.57813c0.47917,0.41667 1.14063,0.625 1.98438,0.625z" fill="#000000" stroke-width="1" stroke-linecap="square"/><path d="M232.83334,190.16667v-20.33333h14.33333v20.33333z" fill="none" stroke-width="0" stroke-linecap="butt"/></g></g></svg>