<svg version="1.1" xmlns="http://www.w3.org/2000/svg" xmlns:xlink="http://www.w3.org/1999/xlink" width="14.33333" height="20.33333" viewBox="0,0,14.33333,20.33333"><g transform="translate(-232.83333,-169.83333)"><g data-paper-data="{&quot;isPaintingLayer&quot;:true}" fill-rule="nonzero" stroke="none" stroke-linejoin="miter" stroke-miterlimit="10" stroke-dasharray="" stroke-dashoffset="0" style="mix-blend-mode: normal"><path d="M239.98436,186.71872c-1.04167,0 -1.97396,-0.26562 -2.79687,-0.79687c-0.82292,-0.53125 -1.46875,-1.30208 -1.9375,-2.3125c-0.46875,-1.01042 -0.70312,-2.21354 -0.70312,-3.60937c0,-1.39583 0.23438,-2.59896 0.70313,-3.60937c0.46875,-1.01042 1.11458,-1.78125 1.9375,-2.3125c0.82292,-0.53125 1.75521,-0.79687 2.79688,-0.79687c1.04167,0 1.97396,0.26563 2.79688,0.79688c0.83333,0.53125 1.48438,1.30208 1.95313,2.3125c0.47917,1.01042 0.71875,2.21354 0.71875,3.60938c0,1.39583 -0.23958,2.59896 -0.71875,3.60938c-0.46875,1.01042 -1.11979,1.78125 -1.95312,2.3125c-0.82292,0.53125 -1.75521,0.79688 -2.79687,0.79688zM239.98436,184.60935c0.9375,0 1.67708,-0.38542 2.21875,-1.15625c0.54167,-0.77083 0.8125,-1.92187 0.8125,-3.45312c0,-1.53125 -0.27083,-2.68229 -0.8125,-3.45312c-0.54167,-0.77083 -1.28125,-1.15625 -2.21875,-1.15625c-0.91667,0 -1.64583,0.38542 -2.1875,1.15625c-0.54167,0.77083 -0.8125,1.92188 -0.8125,3.45313c0,1.53125 0.27083,2.68229 0.8125,3.45313c0.54167,0.77083 1.27083,1.15625 2.1875,1.15625z" fill="#000000" stroke-width="1" stroke-linecap="square"/><path d="M232.83334,190.16667v-20.33333h14.33333v20.33333z" fill="none" stroke-width="0" stroke-linecap="butt"/></g></g></svg>