<svg version="1.1" xmlns="http://www.w3.org/2000/svg" xmlns:xlink="http://www.w3.org/1999/xlink" width="14.33333" height="20.33333" viewBox="0,0,14.33333,20.33333"><g transform="translate(-232.83333,-169.83333)"><g data-paper-data="{&quot;isPaintingLayer&quot;:true}" fill-rule="nonzero" stroke="none" stroke-linejoin="miter" stroke-miterlimit="10" stroke-dasharray="" stroke-dashoffset="0" style="mix-blend-mode: normal"><path d="M239.55466,173.28126c1.79167,0 3.18229,0.5625 4.17188,1.6875c0.98958,1.11458 1.48438,2.71875 1.48438,4.8125c0,1.46875 -0.27083,2.72396 -0.8125,3.76563c-0.53125,1.03125 -1.28125,1.81771 -2.25,2.35938c-0.95833,0.54167 -2.06771,0.8125 -3.32812,0.8125c-0.67708,0 -1.3125,-0.07292 -1.90625,-0.21875c-0.58333,-0.14583 -1.09375,-0.35417 -1.53125,-0.625l0.89063,-1.82812c0.64583,0.42708 1.47396,0.64063 2.48438,0.64063c1.26042,0 2.24479,-0.38542 2.95313,-1.15625c0.70833,-0.77083 1.0625,-1.88542 1.0625,-3.34375v-0.01562c-0.38542,0.44792 -0.88021,0.78646 -1.48437,1.01563c-0.59375,0.22917 -1.26562,0.34375 -2.01562,0.34375c-0.85417,0 -1.625,-0.16146 -2.3125,-0.48437c-0.67708,-0.33333 -1.20833,-0.80208 -1.59375,-1.40625c-0.38542,-0.61458 -0.57812,-1.32292 -0.57812,-2.125c0,-0.84375 0.20833,-1.58333 0.625,-2.21875c0.42708,-0.64583 1,-1.14062 1.71875,-1.48437c0.71875,-0.35417 1.52604,-0.53125 2.42188,-0.53125zM239.74216,179.62501c0.78125,0 1.41667,-0.20833 1.90625,-0.625c0.5,-0.42708 0.75,-0.96354 0.75,-1.60937c0,-0.63542 -0.23958,-1.16146 -0.71875,-1.57812c-0.47917,-0.41667 -1.14062,-0.625 -1.98437,-0.625c-0.76042,0 -1.38021,0.20313 -1.85937,0.60938c-0.46875,0.40625 -0.70312,0.94271 -0.70312,1.60938c0,0.6875 0.23438,1.22917 0.70313,1.625c0.47917,0.39583 1.11458,0.59375 1.90625,0.59375z" fill="#000000" stroke-width="1" stroke-linecap="square"/><path d="M232.83334,190.16667v-20.33333h14.33333v20.33333z" fill="none" stroke-width="0" stroke-linecap="butt"/></g></g></svg>